HIERARCHY
ROOT root
{
	OFFSET 0.000000 0.000000 0.000000
	CHANNELS 6 Xposition Yposition Zposition Zrotation Yrotation Xrotation
	JOINT lhip
	{
		OFFSET 0.058581 -0.082280 -0.017664
		CHANNELS 3 Zrotation Yrotation Xrotation
		JOINT lknee
		{
			OFFSET 0.043451 -0.386469 0.008037
			CHANNELS 3 Zrotation Yrotation Xrotation
			JOINT lankle
			{
				OFFSET -0.014790 -0.426874 -0.037428
				CHANNELS 3 Zrotation Yrotation Xrotation
				JOINT ltoe
				{
					OFFSET 0.041054 -0.060286 0.122042
					CHANNELS 3 Zrotation Yrotation Xrotation
					End Site
					{
						OFFSET 0.000000 0.000000 0.000000
					}
				}
			}
		}
	}
	JOINT rhip
	{
		OFFSET -0.060310 -0.090513 -0.013543
		CHANNELS 3 Zrotation Yrotation Xrotation
		JOINT rknee
		{
			OFFSET -0.043257 -0.383688 -0.004843
			CHANNELS 3 Zrotation Yrotation Xrotation
			JOINT rankle
			{
				OFFSET 0.019056 -0.420046 -0.034562
				CHANNELS 3 Zrotation Yrotation Xrotation
				JOINT rtoe
				{
					OFFSET -0.034840 -0.062106 0.130323
					CHANNELS 3 Zrotation Yrotation Xrotation
					End Site
					{
						OFFSET 0.000000 0.000000 0.000000
					}
				}
			}
		}
	}
	JOINT lowerback
	{
		OFFSET 0.004439 0.124404 -0.038385
		CHANNELS 3 Zrotation Yrotation Xrotation
		JOINT upperback
		{
			OFFSET 0.004488 0.137956 0.026820
			CHANNELS 3 Zrotation Yrotation Xrotation
			JOINT chest
			{
				OFFSET -0.002265 0.056032 0.002855
				CHANNELS 3 Zrotation Yrotation Xrotation
				JOINT lowerneck
				{
					OFFSET -0.013390 0.211636 -0.033468
					CHANNELS 3 Zrotation Yrotation Xrotation
					JOINT upperneck
					{
						OFFSET 0.010113 0.088937 0.050410
						CHANNELS 3 Zrotation Yrotation Xrotation
						End Site
						{
							OFFSET 0.000000 0.000000 0.000000
						}
					}
				}
				JOINT lclavicle
				{
					OFFSET 0.071702 0.114000 -0.018898
					CHANNELS 3 Zrotation Yrotation Xrotation
					JOINT lshoulder
					{
						OFFSET 0.122921 0.045205 -0.019046
						CHANNELS 3 Zrotation Yrotation Xrotation
						JOINT lelbow
						{
							OFFSET 0.255332 -0.015649 -0.022946
							CHANNELS 3 Zrotation Yrotation Xrotation
							JOINT lwrist
							{
								OFFSET 0.265709 0.012698 -0.007375
								CHANNELS 3 Zrotation Yrotation Xrotation
								End Site
								{
									OFFSET 0.000000 0.000000 0.000000
								}
							}
						}
					}
				}
				JOINT rclavicle
				{
					OFFSET -0.082954 0.112472 -0.023707
					CHANNELS 3 Zrotation Yrotation Xrotation
					JOINT rshoulder
					{
						OFFSET -0.113228 0.046853 -0.008472
						CHANNELS 3 Zrotation Yrotation Xrotation
						JOINT relbow
						{
							OFFSET -0.260127 -0.014369 -0.031269
							CHANNELS 3 Zrotation Yrotation Xrotation
							JOINT rwrist
							{
								OFFSET -0.269108 0.006794 -0.006027
								CHANNELS 3 Zrotation Yrotation Xrotation
								End Site
								{
									OFFSET 0.000000 0.000000 0.000000
								}
							}
						}
					}
				}
			}
		}
	}
}
MOTION
Frames: 10
Frame Time: 0.033333
0.182210 0.138238 0.735783 113.078108 -7.610409 107.724245 13.128898 11.242553 -75.893791 -13.010123 12.746792 70.877447 1.801286 -2.657069 -21.873394 0.000000 -0.000000 0.000000 -25.350694 -32.790054 -57.048457 -2.216981 -14.236769 89.543578 0.017556 1.158338 -36.194466 0.000000 -0.000000 0.000000 7.444880 2.766913 35.591277 -3.996986 1.321933 -1.916552 1.727193 7.186680 -2.205732 -2.626428 -20.085439 -4.781129 12.584906 -12.149026 -36.525893 -22.650752 -13.555447 2.517171 -49.990807 11.129501 18.761305 -8.038945 -70.980545 32.535310 30.775514 -27.571457 0.835556 10.763559 32.066504 8.522073 3.463355 19.960496 -24.274323 -6.198375 12.924431 -16.698780 -27.361504 19.162474 -11.708493 
0.180832 0.133501 0.712891 114.090104 -7.534983 106.649008 13.513209 12.266280 -78.546902 -13.105307 13.228220 75.578233 1.994606 -3.718284 -23.248669 0.000000 -0.000000 0.000000 -25.058761 -34.623218 -59.201919 -2.571414 -12.463879 95.427914 0.603792 1.991032 -37.176872 0.000000 -0.000000 0.000000 8.173810 2.469551 39.021109 -4.304148 1.562129 -1.683644 1.656820 7.840103 -3.183892 -2.539465 -21.465507 -5.646890 13.443235 -12.066972 -37.690193 -23.385954 -14.155083 2.711986 -48.505241 12.917714 19.079444 -11.959846 -74.345904 34.958233 33.262197 -27.698555 -3.113113 11.166677 33.561122 9.914302 -1.960627 18.198503 -27.495949 -4.595654 10.038228 -18.179167 -27.281383 19.440663 -10.397899 
0.179840 0.129012 0.692059 114.996512 -7.758507 105.366797 13.791959 13.233837 -80.603338 -13.427315 13.921443 79.612584 2.301167 -4.346300 -24.303314 0.000000 -0.000000 0.000000 -25.834164 -36.023735 -60.480010 -2.483690 -11.207662 100.717585 1.058554 2.818106 -37.714673 0.000000 -0.000000 0.000000 8.413116 2.428307 42.604597 -4.389411 1.764946 -1.749160 1.665980 8.206867 -3.952241 -2.268761 -22.413814 -6.222631 13.871677 -11.995318 -39.133234 -23.314852 -14.327263 2.864164 -47.901013 14.224913 19.189682 -17.474888 -76.929106 39.199061 35.140186 -27.493358 -5.460364 11.306574 34.380104 10.654209 -6.075616 16.952178 -29.660594 -3.364364 7.520298 -18.962158 -26.733884 19.476771 -8.976406 
0.178549 0.125335 0.672184 115.965125 -8.378610 104.183299 13.872708 14.017587 -82.478212 -13.979908 14.893966 82.866142 2.643274 -4.808422 -24.873905 0.000000 -0.000000 0.000000 -27.367346 -37.335457 -61.539129 -2.275082 -10.285983 105.601655 1.174418 3.357777 -38.021962 0.000000 -0.000000 0.000000 8.554063 2.366831 45.788100 -4.524836 1.889600 -1.721486 1.588951 8.380910 -4.577025 -1.833262 -23.223941 -6.685264 14.031304 -11.857859 -40.655623 -23.300018 -14.274172 3.090104 -47.090058 15.323883 19.323289 -25.831042 -78.898327 47.049661 37.167639 -27.109240 -6.302988 11.055969 34.647922 10.922344 -9.138374 15.964052 -31.095684 -2.432167 5.591818 -19.377858 -26.455894 19.109304 -8.450380 
0.177423 0.122201 0.653256 117.077284 -8.903774 103.189609 13.862163 14.881896 -84.408221 -14.589694 15.848861 85.600334 2.899564 -5.470681 -25.044713 0.000000 -0.000000 0.000000 -28.957464 -38.390942 -62.338845 -2.294674 -9.657517 109.944847 0.956396 3.443716 -38.444623 0.000000 -0.000000 0.000000 9.010614 1.990532 48.583180 -4.732620 1.990427 -1.876027 1.481198 8.580927 -5.002931 -1.429431 -23.772399 -7.002573 13.810726 -11.766877 -42.237066 -23.536143 -14.060448 3.369231 -46.134334 16.470687 19.383988 -35.372158 -80.279902 56.446560 38.794280 -26.733237 -6.391015 10.535050 34.721953 11.082617 -11.480753 14.908159 -32.098826 -1.772441 4.241388 -19.522717 -26.645168 18.534590 -8.768241 
0.175818 0.119773 0.635880 118.447174 -9.234985 102.420227 13.719816 15.549132 -86.571715 -15.103579 16.666214 87.997291 3.125704 -6.175893 -25.003712 0.000000 -0.000000 0.000000 -30.224384 -39.414116 -63.082804 -2.243206 -9.085628 113.785328 0.822003 3.282509 -38.886343 0.000000 -0.000000 0.000000 9.906146 1.137096 50.944103 -4.948685 2.014278 -2.513325 1.318626 8.865199 -4.899068 -1.094505 -24.260365 -7.542770 13.319778 -11.685804 -43.485397 -23.534830 -13.790779 3.458385 -45.866374 17.514544 19.331326 -42.620778 -80.823213 63.262744 39.806325 -25.493930 -5.941810 9.780898 34.650398 11.164396 -13.369404 13.863378 -32.879944 -1.298332 3.208601 -19.249463 -26.963805 17.830369 -8.922567 
0.174397 0.117632 0.620738 119.826776 -9.573890 101.524321 13.521956 16.037704 -88.364129 -15.484585 17.457979 90.090888 3.319870 -6.884870 -24.841316 0.000000 -0.000000 0.000000 -31.455533 -40.342600 -63.498738 -2.016321 -8.342562 117.151984 0.765998 3.291563 -39.201709 0.000000 -0.000000 0.000000 10.789099 0.146448 53.303557 -5.138573 1.959306 -3.150456 1.155861 9.136266 -4.761289 -0.744214 -24.798140 -8.210415 12.862886 -11.425350 -44.428709 -23.853731 -13.502881 3.606255 -45.564498 18.441809 19.337636 -49.902917 -81.340191 70.188745 40.835760 -23.963460 -5.076195 9.231124 34.483717 11.365764 -15.202325 12.867502 -33.596895 -0.843340 2.383376 -19.068682 -27.186064 17.185787 -8.786371 
0.172979 0.115782 0.606914 121.055816 -9.881230 100.865159 13.305979 16.477588 -90.189982 -15.721622 18.220503 91.952156 3.509763 -7.544986 -24.585086 0.000000 -0.000000 0.000000 -32.550246 -41.189218 -64.057041 -1.664173 -7.732139 120.153970 0.750530 3.423282 -39.408245 0.000000 -0.000000 0.000000 11.551227 -0.717984 55.047587 -5.243357 1.885784 -3.614220 1.052955 9.320140 -4.520811 -0.392453 -25.112951 -8.903631 12.318555 -11.171554 -45.033925 -23.990026 -13.329873 3.624639 -45.810685 19.446693 19.172374 -55.248742 -81.969590 75.057970 41.387221 -22.727285 -5.476790 8.626150 34.370632 11.419618 -16.588713 12.106237 -34.189418 -0.449040 1.692706 -19.066191 -27.169937 16.625219 -8.823555 
0.171742 0.114153 0.593436 122.052914 -10.101868 100.661686 13.090871 16.933597 -92.307882 -15.923773 18.944247 93.601271 3.697004 -7.955134 -24.305005 0.000000 -0.000000 0.000000 -33.514798 -41.917870 -64.985384 -1.421931 -7.453420 122.946233 0.760858 3.640639 -39.514417 0.000000 -0.000000 0.000000 12.151176 -1.299808 55.807326 -5.226071 1.877763 -3.744774 0.998766 9.500218 -4.309268 -0.186822 -25.327464 -9.218136 11.808972 -11.010876 -45.454834 -23.975742 -13.138836 3.643802 -46.272927 20.321061 18.834365 -58.244902 -82.192183 77.719577 41.903480 -21.804295 -5.391333 8.136894 34.286489 11.608770 -17.587092 11.543912 -34.694863 -0.090934 1.014727 -18.807071 -27.246522 16.261587 -8.798010 
0.171050 0.112584 0.581349 122.773835 -10.242157 100.523807 12.916447 17.417952 -94.168274 -16.079814 19.530905 95.062417 3.822783 -8.239827 -24.065712 0.000000 -0.000000 0.000000 -34.286081 -42.406828 -65.904760 -1.217671 -7.231840 125.373823 0.833473 3.887613 -39.546781 0.000000 -0.000000 0.000000 12.561602 -1.626643 56.338839 -5.110212 1.960964 -3.810897 1.034463 9.673396 -4.108537 -0.090671 -25.483298 -9.224921 11.449450 -10.956799 -45.891741 -23.862737 -12.831284 3.591105 -46.677043 20.870156 18.584973 -60.632682 -82.234562 79.809286 42.159023 -20.955573 -5.175454 7.826403 34.176924 11.868418 -18.371692 11.239686 -35.027004 0.172971 0.321609 -18.392808 -27.339707 15.939503 -8.758108 
